<mxfile host="app.diagrams.net" modified="2021-06-15T10:19:57.773Z" agent="5.0 (Macintosh; Intel Mac OS X 10_15_7) AppleWebKit/537.36 (KHTML, like Gecko) Chrome/91.0.4472.77 Safari/537.36" etag="QISmhw84PDtsUQC4UBCN" version="14.5.1" type="github">
  <diagram id="zu0DAKxvfb67Igw3Qvbh" name="Page-1">
    <mxGraphModel dx="727" dy="898" grid="1" gridSize="10" guides="1" tooltips="1" connect="1" arrows="1" fold="1" page="1" pageScale="1" pageWidth="827" pageHeight="1169" math="0" shadow="0">
      <root>
        <mxCell id="0" />
        <mxCell id="1" parent="0" />
        <mxCell id="wSYSModRQDNQ3y1aXLpu-1" value="" style="rounded=0;dashed=1;whiteSpace=wrap;" vertex="1" parent="1">
          <mxGeometry x="1580" y="900" width="260" height="80" as="geometry" />
        </mxCell>
        <mxCell id="wSYSModRQDNQ3y1aXLpu-2" value="" style="rounded=0;dashed=1;whiteSpace=wrap;" vertex="1" parent="1">
          <mxGeometry x="1800" y="40" width="530" height="90" as="geometry" />
        </mxCell>
        <mxCell id="wSYSModRQDNQ3y1aXLpu-3" value="" style="rounded=0;dashed=1;whiteSpace=wrap;" vertex="1" parent="1">
          <mxGeometry x="960" y="480" width="480" height="90" as="geometry" />
        </mxCell>
        <mxCell id="wSYSModRQDNQ3y1aXLpu-4" value="" style="rounded=0;dashed=1;whiteSpace=wrap;" vertex="1" parent="1">
          <mxGeometry x="960" y="610" width="480" height="270" as="geometry" />
        </mxCell>
        <mxCell id="wSYSModRQDNQ3y1aXLpu-5" value="" style="rounded=0;dashed=1;whiteSpace=wrap;" vertex="1" parent="1">
          <mxGeometry x="960" y="920" width="480" height="80" as="geometry" />
        </mxCell>
        <mxCell id="wSYSModRQDNQ3y1aXLpu-6" value="" style="edgeStyle=orthogonalEdgeStyle;rounded=0;orthogonalLoop=1;jettySize=auto;" edge="1" parent="1">
          <mxGeometry relative="1" as="geometry">
            <mxPoint x="1200" y="920" as="sourcePoint" />
            <mxPoint x="1200" y="880" as="targetPoint" />
          </mxGeometry>
        </mxCell>
        <mxCell id="wSYSModRQDNQ3y1aXLpu-7" value="RayExecutorService" style="rounded=0;fontStyle=0;whiteSpace=wrap;" vertex="1" parent="1">
          <mxGeometry x="1100" y="935" width="200" height="50" as="geometry" />
        </mxCell>
        <mxCell id="wSYSModRQDNQ3y1aXLpu-8" value="" style="edgeStyle=orthogonalEdgeStyle;rounded=0;orthogonalLoop=1;jettySize=auto;" edge="1" parent="1" source="wSYSModRQDNQ3y1aXLpu-9" target="wSYSModRQDNQ3y1aXLpu-11">
          <mxGeometry relative="1" as="geometry" />
        </mxCell>
        <mxCell id="wSYSModRQDNQ3y1aXLpu-9" value="Coordinator" style="rounded=0;fontStyle=0;whiteSpace=wrap;" vertex="1" parent="1">
          <mxGeometry x="1100" y="810" width="200" height="50" as="geometry" />
        </mxCell>
        <mxCell id="wSYSModRQDNQ3y1aXLpu-10" value="" style="edgeStyle=orthogonalEdgeStyle;rounded=0;orthogonalLoop=1;jettySize=auto;" edge="1" parent="1" source="wSYSModRQDNQ3y1aXLpu-11" target="wSYSModRQDNQ3y1aXLpu-13">
          <mxGeometry relative="1" as="geometry" />
        </mxCell>
        <mxCell id="wSYSModRQDNQ3y1aXLpu-11" value="RayTaskFlowEsBackend" style="rounded=0;fontStyle=0;whiteSpace=wrap;" vertex="1" parent="1">
          <mxGeometry x="1100" y="720" width="200" height="50" as="geometry" />
        </mxCell>
        <mxCell id="wSYSModRQDNQ3y1aXLpu-12" value="Scheduler" style="rounded=0;fontStyle=0;whiteSpace=wrap;" vertex="1" parent="1">
          <mxGeometry x="980" y="630" width="120" height="50" as="geometry" />
        </mxCell>
        <mxCell id="wSYSModRQDNQ3y1aXLpu-13" value="Notifier" style="rounded=0;fontStyle=0;whiteSpace=wrap;" vertex="1" parent="1">
          <mxGeometry x="1140" y="630" width="120" height="50" as="geometry" />
        </mxCell>
        <mxCell id="wSYSModRQDNQ3y1aXLpu-14" value="Dispatcher" style="rounded=0;fontStyle=0;whiteSpace=wrap;" vertex="1" parent="1">
          <mxGeometry x="1300" y="630" width="120" height="50" as="geometry" />
        </mxCell>
        <mxCell id="wSYSModRQDNQ3y1aXLpu-15" value="" style="endArrow=classic;entryX=0.5;entryY=1;entryDx=0;entryDy=0;exitX=0.25;exitY=0;exitDx=0;exitDy=0;edgeStyle=orthogonalEdgeStyle;" edge="1" parent="1" source="wSYSModRQDNQ3y1aXLpu-11" target="wSYSModRQDNQ3y1aXLpu-12">
          <mxGeometry width="50" height="50" relative="1" as="geometry">
            <mxPoint x="970" y="780" as="sourcePoint" />
            <mxPoint x="1020" y="730" as="targetPoint" />
          </mxGeometry>
        </mxCell>
        <mxCell id="wSYSModRQDNQ3y1aXLpu-16" value="" style="endArrow=classic;entryX=0.5;entryY=1;entryDx=0;entryDy=0;exitX=0.75;exitY=0;exitDx=0;exitDy=0;edgeStyle=orthogonalEdgeStyle;" edge="1" parent="1" source="wSYSModRQDNQ3y1aXLpu-11" target="wSYSModRQDNQ3y1aXLpu-14">
          <mxGeometry width="50" height="50" relative="1" as="geometry">
            <mxPoint x="1160" y="730" as="sourcePoint" />
            <mxPoint x="1050" y="690" as="targetPoint" />
          </mxGeometry>
        </mxCell>
        <mxCell id="wSYSModRQDNQ3y1aXLpu-17" value="Driver" style="text;align=right;verticalAlign=middle;resizable=0;points=[];autosize=1;" vertex="1" parent="1">
          <mxGeometry x="1390" y="980" width="50" height="20" as="geometry" />
        </mxCell>
        <mxCell id="wSYSModRQDNQ3y1aXLpu-18" value="Coordinator" style="text;align=right;verticalAlign=middle;resizable=0;points=[];autosize=1;" vertex="1" parent="1">
          <mxGeometry x="1360" y="860" width="80" height="20" as="geometry" />
        </mxCell>
        <mxCell id="wSYSModRQDNQ3y1aXLpu-19" value="" style="rounded=0;dashed=1;whiteSpace=wrap;" vertex="1" parent="1">
          <mxGeometry x="1800" y="170" width="530" height="90" as="geometry" />
        </mxCell>
        <mxCell id="wSYSModRQDNQ3y1aXLpu-20" value="" style="rounded=0;dashed=1;whiteSpace=wrap;" vertex="1" parent="1">
          <mxGeometry x="1800" y="300" width="530" height="260" as="geometry" />
        </mxCell>
        <mxCell id="wSYSModRQDNQ3y1aXLpu-21" value="" style="edgeStyle=orthogonalEdgeStyle;rounded=0;orthogonalLoop=1;jettySize=auto;" edge="1" parent="1" source="wSYSModRQDNQ3y1aXLpu-22" target="wSYSModRQDNQ3y1aXLpu-24">
          <mxGeometry relative="1" as="geometry" />
        </mxCell>
        <mxCell id="wSYSModRQDNQ3y1aXLpu-22" value="RayExecutorService" style="rounded=0;fontStyle=0;whiteSpace=wrap;" vertex="1" parent="1">
          <mxGeometry x="1969" y="320" width="200" height="50" as="geometry" />
        </mxCell>
        <mxCell id="wSYSModRQDNQ3y1aXLpu-23" value="" style="edgeStyle=orthogonalEdgeStyle;rounded=0;orthogonalLoop=1;jettySize=auto;entryX=0.5;entryY=1;entryDx=0;entryDy=0;" edge="1" parent="1" source="wSYSModRQDNQ3y1aXLpu-24" target="wSYSModRQDNQ3y1aXLpu-28">
          <mxGeometry relative="1" as="geometry">
            <mxPoint x="2054" y="140" as="targetPoint" />
          </mxGeometry>
        </mxCell>
        <mxCell id="wSYSModRQDNQ3y1aXLpu-24" value="Coordinator" style="rounded=0;fontStyle=0;whiteSpace=wrap;" vertex="1" parent="1">
          <mxGeometry x="1969" y="190" width="200" height="50" as="geometry" />
        </mxCell>
        <mxCell id="wSYSModRQDNQ3y1aXLpu-25" value="Driver" style="text;align=right;verticalAlign=middle;resizable=0;points=[];autosize=1;" vertex="1" parent="1">
          <mxGeometry x="2280" y="540" width="50" height="20" as="geometry" />
        </mxCell>
        <mxCell id="wSYSModRQDNQ3y1aXLpu-26" value="Coordinator" style="text;align=right;verticalAlign=middle;resizable=0;points=[];autosize=1;" vertex="1" parent="1">
          <mxGeometry x="2250" y="240" width="80" height="20" as="geometry" />
        </mxCell>
        <mxCell id="wSYSModRQDNQ3y1aXLpu-27" value="Worker1" style="rounded=0;fontStyle=0;whiteSpace=wrap;" vertex="1" parent="1">
          <mxGeometry x="1849" y="60" width="120" height="50" as="geometry" />
        </mxCell>
        <mxCell id="wSYSModRQDNQ3y1aXLpu-28" value="Worker2" style="rounded=0;fontStyle=0;whiteSpace=wrap;" vertex="1" parent="1">
          <mxGeometry x="2009" y="60" width="120" height="50" as="geometry" />
        </mxCell>
        <mxCell id="wSYSModRQDNQ3y1aXLpu-29" value="WorkerN" style="rounded=0;fontStyle=0;whiteSpace=wrap;" vertex="1" parent="1">
          <mxGeometry x="2169" y="60" width="120" height="50" as="geometry" />
        </mxCell>
        <mxCell id="wSYSModRQDNQ3y1aXLpu-30" value="" style="edgeStyle=orthogonalEdgeStyle;rounded=1;orthogonalLoop=1;jettySize=auto;entryX=0.5;entryY=1;entryDx=0;entryDy=0;exitX=0.25;exitY=0;exitDx=0;exitDy=0;" edge="1" parent="1" source="wSYSModRQDNQ3y1aXLpu-24" target="wSYSModRQDNQ3y1aXLpu-27">
          <mxGeometry relative="1" as="geometry">
            <mxPoint x="2064" y="190" as="sourcePoint" />
            <mxPoint x="2064" y="150" as="targetPoint" />
          </mxGeometry>
        </mxCell>
        <mxCell id="wSYSModRQDNQ3y1aXLpu-31" value="" style="edgeStyle=orthogonalEdgeStyle;rounded=1;orthogonalLoop=1;jettySize=auto;entryX=0.5;entryY=1;entryDx=0;entryDy=0;exitX=0.75;exitY=0;exitDx=0;exitDy=0;" edge="1" parent="1" source="wSYSModRQDNQ3y1aXLpu-24" target="wSYSModRQDNQ3y1aXLpu-29">
          <mxGeometry relative="1" as="geometry">
            <mxPoint x="2074" y="200" as="sourcePoint" />
            <mxPoint x="2074" y="160" as="targetPoint" />
          </mxGeometry>
        </mxCell>
        <mxCell id="wSYSModRQDNQ3y1aXLpu-32" value="" style="rounded=1;orthogonalLoop=1;jettySize=auto;exitX=0.5;exitY=0;exitDx=0;exitDy=0;entryX=0.25;entryY=1;entryDx=0;entryDy=0;edgeStyle=orthogonalEdgeStyle;" edge="1" parent="1" source="wSYSModRQDNQ3y1aXLpu-34" target="wSYSModRQDNQ3y1aXLpu-22">
          <mxGeometry relative="1" as="geometry">
            <mxPoint x="2064" y="320" as="sourcePoint" />
            <mxPoint x="2064" y="240" as="targetPoint" />
            <Array as="points">
              <mxPoint x="2054" y="470" />
              <mxPoint x="2019" y="470" />
            </Array>
          </mxGeometry>
        </mxCell>
        <mxCell id="wSYSModRQDNQ3y1aXLpu-33" value="" style="edgeStyle=orthogonalEdgeStyle;rounded=1;orthogonalLoop=1;jettySize=auto;startArrow=none;startFill=0;endArrow=classic;endFill=1;strokeColor=#f0f0f0;entryX=0.5;entryY=1;entryDx=0;entryDy=0;" edge="1" parent="1" source="wSYSModRQDNQ3y1aXLpu-34" target="wSYSModRQDNQ3y1aXLpu-41">
          <mxGeometry relative="1" as="geometry" />
        </mxCell>
        <mxCell id="wSYSModRQDNQ3y1aXLpu-34" value="RayTaskFlowEsBackend" style="rounded=0;fontStyle=0;whiteSpace=wrap;" vertex="1" parent="1">
          <mxGeometry x="1969" y="490" width="200" height="50" as="geometry" />
        </mxCell>
        <mxCell id="wSYSModRQDNQ3y1aXLpu-35" value="Scheduler" style="rounded=0;fontStyle=0;whiteSpace=wrap;" vertex="1" parent="1">
          <mxGeometry x="1821" y="400" width="100" height="50" as="geometry" />
        </mxCell>
        <mxCell id="wSYSModRQDNQ3y1aXLpu-36" value="Notifier" style="rounded=0;fontStyle=0;whiteSpace=wrap;" vertex="1" parent="1">
          <mxGeometry x="2049" y="400" width="100" height="50" as="geometry" />
        </mxCell>
        <mxCell id="wSYSModRQDNQ3y1aXLpu-37" value="" style="edgeStyle=none;rounded=1;orthogonalLoop=1;jettySize=auto;strokeColor=#f0f0f0;startArrow=classic;startFill=1;endArrow=none;endFill=0;" edge="1" parent="1" source="wSYSModRQDNQ3y1aXLpu-38" target="wSYSModRQDNQ3y1aXLpu-34">
          <mxGeometry relative="1" as="geometry" />
        </mxCell>
        <mxCell id="wSYSModRQDNQ3y1aXLpu-38" value="Dispatcher" style="rounded=0;fontStyle=0;whiteSpace=wrap;" vertex="1" parent="1">
          <mxGeometry x="1821" y="490" width="100" height="50" as="geometry" />
        </mxCell>
        <mxCell id="wSYSModRQDNQ3y1aXLpu-39" value="" style="edgeStyle=orthogonalEdgeStyle;rounded=1;orthogonalLoop=1;jettySize=auto;exitX=0.75;exitY=0;exitDx=0;exitDy=0;" edge="1" parent="1" source="wSYSModRQDNQ3y1aXLpu-34" target="wSYSModRQDNQ3y1aXLpu-36">
          <mxGeometry x="1834" y="400" as="geometry" />
        </mxCell>
        <mxCell id="wSYSModRQDNQ3y1aXLpu-40" value="" style="endArrow=classic;entryX=0.5;entryY=1;entryDx=0;entryDy=0;exitX=0.25;exitY=0;exitDx=0;exitDy=0;edgeStyle=orthogonalEdgeStyle;" edge="1" parent="1" source="wSYSModRQDNQ3y1aXLpu-34" target="wSYSModRQDNQ3y1aXLpu-35">
          <mxGeometry x="1834" y="400" width="50" height="50" as="geometry">
            <mxPoint x="1824" y="550" as="sourcePoint" />
            <mxPoint x="1874" y="500" as="targetPoint" />
          </mxGeometry>
        </mxCell>
        <mxCell id="wSYSModRQDNQ3y1aXLpu-41" value="TaskFlowContext" style="rounded=0;fontStyle=0;whiteSpace=wrap;" vertex="1" parent="1">
          <mxGeometry x="2180" y="400" width="130" height="50" as="geometry" />
        </mxCell>
        <mxCell id="wSYSModRQDNQ3y1aXLpu-42" value="" style="rounded=0;dashed=1;whiteSpace=wrap;" vertex="1" parent="1">
          <mxGeometry x="940" y="40" width="520" height="260" as="geometry" />
        </mxCell>
        <mxCell id="wSYSModRQDNQ3y1aXLpu-43" value="ThreadPoolExecutor" style="rounded=0;fontStyle=0;whiteSpace=wrap;" vertex="1" parent="1">
          <mxGeometry x="1080" y="60" width="200" height="50" as="geometry" />
        </mxCell>
        <mxCell id="wSYSModRQDNQ3y1aXLpu-44" value="" style="rounded=1;orthogonalLoop=1;jettySize=auto;exitX=0.5;exitY=0;exitDx=0;exitDy=0;entryX=0.25;entryY=1;entryDx=0;entryDy=0;edgeStyle=orthogonalEdgeStyle;" edge="1" parent="1" source="wSYSModRQDNQ3y1aXLpu-46" target="wSYSModRQDNQ3y1aXLpu-43">
          <mxGeometry relative="1" as="geometry">
            <mxPoint x="1190" y="60" as="sourcePoint" />
            <mxPoint x="1190" y="-20" as="targetPoint" />
            <Array as="points">
              <mxPoint x="1180" y="200" />
              <mxPoint x="1130" y="200" />
            </Array>
          </mxGeometry>
        </mxCell>
        <mxCell id="wSYSModRQDNQ3y1aXLpu-45" value="" style="edgeStyle=orthogonalEdgeStyle;rounded=1;orthogonalLoop=1;jettySize=auto;startArrow=none;startFill=0;endArrow=classic;endFill=1;strokeColor=#f0f0f0;entryX=0.5;entryY=1;entryDx=0;entryDy=0;" edge="1" parent="1" source="wSYSModRQDNQ3y1aXLpu-46" target="wSYSModRQDNQ3y1aXLpu-53">
          <mxGeometry relative="1" as="geometry" />
        </mxCell>
        <mxCell id="wSYSModRQDNQ3y1aXLpu-46" value="SimpleExecutorBackend" style="rounded=0;fontStyle=0;whiteSpace=wrap;" vertex="1" parent="1">
          <mxGeometry x="1080" y="230" width="200" height="50" as="geometry" />
        </mxCell>
        <mxCell id="wSYSModRQDNQ3y1aXLpu-47" value="Scheduler" style="rounded=0;fontStyle=0;whiteSpace=wrap;" vertex="1" parent="1">
          <mxGeometry x="960" y="140" width="100" height="50" as="geometry" />
        </mxCell>
        <mxCell id="wSYSModRQDNQ3y1aXLpu-48" value="Notifier" style="rounded=0;fontStyle=0;whiteSpace=wrap;" vertex="1" parent="1">
          <mxGeometry x="1180" y="140" width="100" height="50" as="geometry" />
        </mxCell>
        <mxCell id="wSYSModRQDNQ3y1aXLpu-49" value="" style="edgeStyle=none;rounded=1;orthogonalLoop=1;jettySize=auto;strokeColor=#f0f0f0;startArrow=classic;startFill=1;endArrow=none;endFill=0;" edge="1" parent="1" source="wSYSModRQDNQ3y1aXLpu-50" target="wSYSModRQDNQ3y1aXLpu-46">
          <mxGeometry relative="1" as="geometry" />
        </mxCell>
        <mxCell id="wSYSModRQDNQ3y1aXLpu-50" value="Dispatcher" style="rounded=0;fontStyle=0;whiteSpace=wrap;" vertex="1" parent="1">
          <mxGeometry x="960" y="230" width="100" height="50" as="geometry" />
        </mxCell>
        <mxCell id="wSYSModRQDNQ3y1aXLpu-51" value="" style="edgeStyle=orthogonalEdgeStyle;rounded=1;orthogonalLoop=1;jettySize=auto;exitX=0.75;exitY=0;exitDx=0;exitDy=0;" edge="1" parent="1" source="wSYSModRQDNQ3y1aXLpu-46" target="wSYSModRQDNQ3y1aXLpu-48">
          <mxGeometry x="960" y="140" as="geometry" />
        </mxCell>
        <mxCell id="wSYSModRQDNQ3y1aXLpu-52" value="" style="endArrow=classic;entryX=0.5;entryY=1;entryDx=0;entryDy=0;exitX=0.25;exitY=0;exitDx=0;exitDy=0;edgeStyle=orthogonalEdgeStyle;" edge="1" parent="1" source="wSYSModRQDNQ3y1aXLpu-46" target="wSYSModRQDNQ3y1aXLpu-47">
          <mxGeometry x="960" y="140" width="50" height="50" as="geometry">
            <mxPoint x="950" y="290" as="sourcePoint" />
            <mxPoint x="1000" y="240" as="targetPoint" />
          </mxGeometry>
        </mxCell>
        <mxCell id="wSYSModRQDNQ3y1aXLpu-53" value="TaskFlowContext" style="rounded=0;fontStyle=0;whiteSpace=wrap;" vertex="1" parent="1">
          <mxGeometry x="1315" y="140" width="130" height="50" as="geometry" />
        </mxCell>
        <mxCell id="wSYSModRQDNQ3y1aXLpu-54" value="TaskFlow" style="text;align=center;verticalAlign=middle;resizable=0;points=[];autosize=1;" vertex="1" parent="1">
          <mxGeometry x="940" y="40" width="70" height="20" as="geometry" />
        </mxCell>
        <mxCell id="wSYSModRQDNQ3y1aXLpu-55" value="Worker1" style="rounded=0;fontStyle=0;whiteSpace=wrap;" vertex="1" parent="1">
          <mxGeometry x="980" y="500" width="120" height="50" as="geometry" />
        </mxCell>
        <mxCell id="wSYSModRQDNQ3y1aXLpu-56" value="Worker2" style="rounded=0;fontStyle=0;whiteSpace=wrap;" vertex="1" parent="1">
          <mxGeometry x="1140" y="500" width="120" height="50" as="geometry" />
        </mxCell>
        <mxCell id="wSYSModRQDNQ3y1aXLpu-57" value="WorkerN" style="rounded=0;fontStyle=0;whiteSpace=wrap;" vertex="1" parent="1">
          <mxGeometry x="1300" y="500" width="120" height="50" as="geometry" />
        </mxCell>
        <mxCell id="wSYSModRQDNQ3y1aXLpu-58" value="" style="edgeStyle=orthogonalEdgeStyle;rounded=0;orthogonalLoop=1;jettySize=auto;entryX=0.5;entryY=1;entryDx=0;entryDy=0;exitX=0.5;exitY=0;exitDx=0;exitDy=0;" edge="1" parent="1" source="wSYSModRQDNQ3y1aXLpu-4" target="wSYSModRQDNQ3y1aXLpu-3">
          <mxGeometry relative="1" as="geometry">
            <mxPoint x="1200" y="590" as="sourcePoint" />
            <mxPoint x="1210" y="670" as="targetPoint" />
          </mxGeometry>
        </mxCell>
        <mxCell id="wSYSModRQDNQ3y1aXLpu-59" value="Worker" style="text;align=right;verticalAlign=middle;resizable=0;points=[];autosize=1;" vertex="1" parent="1">
          <mxGeometry x="2280" y="110" width="50" height="20" as="geometry" />
        </mxCell>
        <mxCell id="wSYSModRQDNQ3y1aXLpu-60" value="Worker" style="text;align=right;verticalAlign=middle;resizable=0;points=[];autosize=1;" vertex="1" parent="1">
          <mxGeometry x="1390" y="550" width="50" height="20" as="geometry" />
        </mxCell>
        <mxCell id="wSYSModRQDNQ3y1aXLpu-61" value="" style="rounded=0;dashed=1;whiteSpace=wrap;" vertex="1" parent="1">
          <mxGeometry x="1940" y="680" width="530" height="90" as="geometry" />
        </mxCell>
        <mxCell id="wSYSModRQDNQ3y1aXLpu-62" value="" style="rounded=0;dashed=1;whiteSpace=wrap;" vertex="1" parent="1">
          <mxGeometry x="1940" y="810" width="530" height="260" as="geometry" />
        </mxCell>
        <mxCell id="wSYSModRQDNQ3y1aXLpu-63" value="RayExecutorService/Coordinator" style="rounded=0;fontStyle=0;whiteSpace=wrap;" vertex="1" parent="1">
          <mxGeometry x="2090" y="830" width="280" height="50" as="geometry" />
        </mxCell>
        <mxCell id="wSYSModRQDNQ3y1aXLpu-64" value="" style="edgeStyle=orthogonalEdgeStyle;rounded=0;orthogonalLoop=1;jettySize=auto;entryX=0.5;entryY=1;entryDx=0;entryDy=0;" edge="1" parent="1" target="wSYSModRQDNQ3y1aXLpu-66">
          <mxGeometry relative="1" as="geometry">
            <mxPoint x="2194" y="650" as="targetPoint" />
            <mxPoint x="2209" y="810" as="sourcePoint" />
          </mxGeometry>
        </mxCell>
        <mxCell id="wSYSModRQDNQ3y1aXLpu-65" value="Worker1" style="rounded=0;fontStyle=0;whiteSpace=wrap;" vertex="1" parent="1">
          <mxGeometry x="1989" y="700" width="120" height="50" as="geometry" />
        </mxCell>
        <mxCell id="wSYSModRQDNQ3y1aXLpu-66" value="Worker2" style="rounded=0;fontStyle=0;whiteSpace=wrap;" vertex="1" parent="1">
          <mxGeometry x="2149" y="700" width="120" height="50" as="geometry" />
        </mxCell>
        <mxCell id="wSYSModRQDNQ3y1aXLpu-67" value="WorkerN" style="rounded=0;fontStyle=0;whiteSpace=wrap;" vertex="1" parent="1">
          <mxGeometry x="2309" y="700" width="120" height="50" as="geometry" />
        </mxCell>
        <mxCell id="wSYSModRQDNQ3y1aXLpu-68" value="" style="edgeStyle=orthogonalEdgeStyle;rounded=1;orthogonalLoop=1;jettySize=auto;entryX=0.5;entryY=1;entryDx=0;entryDy=0;exitX=0.25;exitY=0;exitDx=0;exitDy=0;" edge="1" parent="1" source="wSYSModRQDNQ3y1aXLpu-62" target="wSYSModRQDNQ3y1aXLpu-65">
          <mxGeometry relative="1" as="geometry">
            <mxPoint x="2159" y="700" as="sourcePoint" />
            <mxPoint x="2204" y="660" as="targetPoint" />
            <Array as="points">
              <mxPoint x="2073" y="790" />
              <mxPoint x="2049" y="790" />
            </Array>
          </mxGeometry>
        </mxCell>
        <mxCell id="wSYSModRQDNQ3y1aXLpu-69" value="" style="edgeStyle=orthogonalEdgeStyle;rounded=1;orthogonalLoop=1;jettySize=auto;entryX=0.5;entryY=1;entryDx=0;entryDy=0;exitX=0.75;exitY=0;exitDx=0;exitDy=0;" edge="1" parent="1" source="wSYSModRQDNQ3y1aXLpu-62" target="wSYSModRQDNQ3y1aXLpu-67">
          <mxGeometry relative="1" as="geometry">
            <mxPoint x="2259" y="700" as="sourcePoint" />
            <mxPoint x="2214" y="670" as="targetPoint" />
            <Array as="points">
              <mxPoint x="2338" y="790" />
              <mxPoint x="2369" y="790" />
            </Array>
          </mxGeometry>
        </mxCell>
        <mxCell id="wSYSModRQDNQ3y1aXLpu-70" value="" style="rounded=1;orthogonalLoop=1;jettySize=auto;exitX=0.5;exitY=0;exitDx=0;exitDy=0;entryX=0.25;entryY=1;entryDx=0;entryDy=0;edgeStyle=orthogonalEdgeStyle;" edge="1" parent="1" source="wSYSModRQDNQ3y1aXLpu-72" target="wSYSModRQDNQ3y1aXLpu-63">
          <mxGeometry relative="1" as="geometry">
            <mxPoint x="2204" y="830" as="sourcePoint" />
            <mxPoint x="2204" y="750" as="targetPoint" />
            <Array as="points">
              <mxPoint x="2194" y="980" />
              <mxPoint x="2159" y="980" />
            </Array>
          </mxGeometry>
        </mxCell>
        <mxCell id="wSYSModRQDNQ3y1aXLpu-71" value="" style="edgeStyle=orthogonalEdgeStyle;rounded=1;orthogonalLoop=1;jettySize=auto;startArrow=none;startFill=0;endArrow=classic;endFill=1;strokeColor=#f0f0f0;entryX=0.5;entryY=1;entryDx=0;entryDy=0;" edge="1" parent="1" source="wSYSModRQDNQ3y1aXLpu-72" target="wSYSModRQDNQ3y1aXLpu-79">
          <mxGeometry relative="1" as="geometry" />
        </mxCell>
        <mxCell id="wSYSModRQDNQ3y1aXLpu-72" value="RayTaskFlowEsBackend" style="rounded=0;fontStyle=0;whiteSpace=wrap;" vertex="1" parent="1">
          <mxGeometry x="2109" y="1000" width="200" height="50" as="geometry" />
        </mxCell>
        <mxCell id="wSYSModRQDNQ3y1aXLpu-73" value="Scheduler" style="rounded=0;fontStyle=0;whiteSpace=wrap;" vertex="1" parent="1">
          <mxGeometry x="1961" y="910" width="100" height="50" as="geometry" />
        </mxCell>
        <mxCell id="wSYSModRQDNQ3y1aXLpu-74" value="Notifier" style="rounded=0;fontStyle=0;whiteSpace=wrap;" vertex="1" parent="1">
          <mxGeometry x="2189" y="910" width="100" height="50" as="geometry" />
        </mxCell>
        <mxCell id="wSYSModRQDNQ3y1aXLpu-75" value="" style="edgeStyle=none;rounded=1;orthogonalLoop=1;jettySize=auto;strokeColor=#f0f0f0;startArrow=classic;startFill=1;endArrow=none;endFill=0;" edge="1" parent="1" source="wSYSModRQDNQ3y1aXLpu-76" target="wSYSModRQDNQ3y1aXLpu-72">
          <mxGeometry relative="1" as="geometry" />
        </mxCell>
        <mxCell id="wSYSModRQDNQ3y1aXLpu-76" value="Dispatcher" style="rounded=0;fontStyle=0;whiteSpace=wrap;" vertex="1" parent="1">
          <mxGeometry x="1961" y="1000" width="100" height="50" as="geometry" />
        </mxCell>
        <mxCell id="wSYSModRQDNQ3y1aXLpu-77" value="" style="edgeStyle=orthogonalEdgeStyle;rounded=1;orthogonalLoop=1;jettySize=auto;exitX=0.75;exitY=0;exitDx=0;exitDy=0;" edge="1" parent="1" source="wSYSModRQDNQ3y1aXLpu-72" target="wSYSModRQDNQ3y1aXLpu-74">
          <mxGeometry x="1974" y="910" as="geometry" />
        </mxCell>
        <mxCell id="wSYSModRQDNQ3y1aXLpu-78" value="" style="endArrow=classic;entryX=0.5;entryY=1;entryDx=0;entryDy=0;exitX=0.25;exitY=0;exitDx=0;exitDy=0;edgeStyle=orthogonalEdgeStyle;" edge="1" parent="1" source="wSYSModRQDNQ3y1aXLpu-72" target="wSYSModRQDNQ3y1aXLpu-73">
          <mxGeometry x="1974" y="910" width="50" height="50" as="geometry">
            <mxPoint x="1964" y="1060" as="sourcePoint" />
            <mxPoint x="2014" y="1010" as="targetPoint" />
          </mxGeometry>
        </mxCell>
        <mxCell id="wSYSModRQDNQ3y1aXLpu-79" value="TaskFlowContext" style="rounded=0;fontStyle=0;whiteSpace=wrap;" vertex="1" parent="1">
          <mxGeometry x="2320" y="910" width="130" height="50" as="geometry" />
        </mxCell>
        <mxCell id="wSYSModRQDNQ3y1aXLpu-80" value="Worker" style="text;align=right;verticalAlign=middle;resizable=0;points=[];autosize=1;" vertex="1" parent="1">
          <mxGeometry x="2420" y="750" width="50" height="20" as="geometry" />
        </mxCell>
        <mxCell id="wSYSModRQDNQ3y1aXLpu-81" value="Coordinator" style="text;align=right;verticalAlign=middle;resizable=0;points=[];autosize=1;" vertex="1" parent="1">
          <mxGeometry x="2390" y="1050" width="80" height="20" as="geometry" />
        </mxCell>
        <mxCell id="wSYSModRQDNQ3y1aXLpu-82" value="" style="edgeStyle=orthogonalEdgeStyle;rounded=1;orthogonalLoop=1;jettySize=auto;startArrow=none;startFill=0;endArrow=classic;endFill=1;strokeColor=#f0f0f0;exitX=1;exitY=0.5;exitDx=0;exitDy=0;" edge="1" parent="1" source="wSYSModRQDNQ3y1aXLpu-1" target="wSYSModRQDNQ3y1aXLpu-62">
          <mxGeometry relative="1" as="geometry">
            <mxPoint x="1850" y="940" as="sourcePoint" />
          </mxGeometry>
        </mxCell>
        <mxCell id="wSYSModRQDNQ3y1aXLpu-83" value="submit" style="edgeLabel;align=center;verticalAlign=middle;resizable=0;points=[];" vertex="1" connectable="0" parent="wSYSModRQDNQ3y1aXLpu-82">
          <mxGeometry x="0.16" y="2" relative="1" as="geometry">
            <mxPoint x="-10" as="offset" />
          </mxGeometry>
        </mxCell>
        <mxCell id="wSYSModRQDNQ3y1aXLpu-84" value="RayTaskFlowClient" style="rounded=0;fontStyle=0;whiteSpace=wrap;" vertex="1" parent="1">
          <mxGeometry x="1610" y="915" width="200" height="50" as="geometry" />
        </mxCell>
        <mxCell id="wSYSModRQDNQ3y1aXLpu-85" value="Driver" style="text;align=right;verticalAlign=middle;resizable=0;points=[];autosize=1;" vertex="1" parent="1">
          <mxGeometry x="1790" y="960" width="50" height="20" as="geometry" />
        </mxCell>
      </root>
    </mxGraphModel>
  </diagram>
</mxfile>
